<?xml version="1.0" encoding="iso-8859-1"?>
<!-- Generator: Adobe Illustrator 17.1.0, SVG Export Plug-In . SVG Version: 6.00 Build 0)  -->
<!DOCTYPE svg PUBLIC "-//W3C//DTD SVG 1.1//EN" "http://www.w3.org/Graphics/SVG/1.1/DTD/svg11.dtd">
<svg version="1.1" id="Capa_1" xmlns="http://www.w3.org/2000/svg" xmlns:xlink="http://www.w3.org/1999/xlink" x="0px" y="0px"
	 viewBox="0 0 470 470" style="enable-background:new 0 0 470 470;" xml:space="preserve">
<g>
	<path d="M293.042,232.052c-0.56-3.07-2.963-5.473-6.033-6.033c-7.489-1.366-15.15-2.058-22.771-2.058
		c-33.731,0-65.441,13.133-89.288,36.98c-28.379,28.379-41.519,68.54-35.573,108.134l-27.789,27.792
		c-2.929,2.929-2.928,7.678,0,10.607c1.465,1.464,3.384,2.196,5.303,2.196s3.839-0.732,5.304-2.197l27.793-27.796
		c6.229,0.934,12.549,1.414,18.843,1.414c33.73,0,65.442-13.134,89.289-36.98C287.438,314.793,300.493,272.902,293.042,232.052z
		 M247.514,333.504c-21.015,21.014-48.958,32.587-78.682,32.587c-1.708,0-3.417-0.054-5.126-0.133l98.924-98.931
		c2.929-2.929,2.928-7.678,0-10.607c-2.93-2.929-7.677-2.928-10.607,0l-98.933,98.941c-1.418-31.051,10.202-61.548,32.468-83.814
		c21.014-21.014,48.957-32.587,78.682-32.587c4.963,0,9.945,0.333,14.87,0.992C283.712,274.282,272.105,308.913,247.514,333.504z"/>
	<path d="M116.892,148.631c4.142,0,7.5-3.358,7.5-7.5v-96.5h153.935v96.5c0,4.142,3.358,7.5,7.5,7.5s7.5-3.358,7.5-7.5v-104
		c0-4.142-3.358-7.5-7.5-7.5H116.892c-4.142,0-7.5,3.358-7.5,7.5v104C109.392,145.273,112.75,148.631,116.892,148.631z"/>
	<path d="M403.108,73.507h-5.056C394.413,48.926,373.178,30,347.601,30c-4.142,0-7.5,3.358-7.5,7.5s3.358,7.5,7.5,7.5
		c17.283,0,31.755,12.241,35.216,28.507h-13.709c-4.142,0-7.5,3.358-7.5,7.5s3.358,7.5,7.5,7.5h2.5v66.044
		c0,4.142,3.358,7.5,7.5,7.5h4.5v171.37c0,5.998-4.879,10.876-10.876,10.876c-5.998,0-10.877-4.879-10.877-10.876v-178.87
		c0-21.845-15.913-40.031-36.753-43.605V37.5c0-20.677-16.822-37.5-37.5-37.5H116.892c-20.678,0-37.5,16.823-37.5,37.5V455h-12.5
		c-4.142,0-7.5,3.358-7.5,7.5s3.358,7.5,7.5,7.5h270.709c4.142,0,7.5-3.358,7.5-7.5s-3.358-7.5-7.5-7.5h-12.5V126.277
		c12.508,3.321,21.753,14.737,21.753,28.275v178.87c0,14.269,11.608,25.876,25.877,25.876s25.876-11.608,25.876-25.876v-171.37h4.5
		c4.142,0,7.5-3.358,7.5-7.5V81.007C410.608,76.865,407.25,73.507,403.108,73.507z M116.892,15h170.709
		c12.407,0,22.5,10.094,22.5,22.5v126.131H94.392V37.5C94.392,25.094,104.485,15,116.892,15z M94.392,455V178.631h215.709V455
		H94.392z M386.608,147.052V88.507h9v58.544H386.608z"/>
</g>
<g>
</g>
<g>
</g>
<g>
</g>
<g>
</g>
<g>
</g>
<g>
</g>
<g>
</g>
<g>
</g>
<g>
</g>
<g>
</g>
<g>
</g>
<g>
</g>
<g>
</g>
<g>
</g>
<g>
</g>
</svg>
